# xmcd CD database file
#
# Track frame offsets:
#	187
#	12012
#	23912
#	35662
#	48987
#	62437
#	74812
#	91912
#
# Disc length: 1405 seconds
#
# Revision: 0
# Processed by: cddbd v1.5.2PL0 Copyright (c) Steve Scherf et al.
# Submitted via: CDex 1.51
#
DISCID=63057b08
DTITLE=Bobby Jaspar - New Jazz, Vol. 2
DYEAR=1954
DGENRE=Jazz
TTITLE0=You Took Advantage Of Me
TTITLE1=Sanguine
TTITLE2=Jeux De Quartes
TTITLE3=Easy To Love
TTITLE4=Hornpipe
TTITLE5=More Than You Know
TTITLE6=Early Wake
TTITLE7=Honky Tonky
EXTD=YEAR: 1954
EXTT0=
EXTT1=
EXTT2=
EXTT3=
EXTT4=
EXTT5=
EXTT6=
EXTT7=
PLAYORDER=
